<svg width="78" height="81" viewBox="0 0 78 81" fill="none" xmlns="http://www.w3.org/2000/svg">
<path d="M51.8005 27.2636C56.8729 27.2636 61.7375 29.3707 65.3242 33.1214C68.9109 36.8722 70.9259 41.9592 70.9259 47.2636V70.5969H58.1756V47.2636C58.1756 45.4955 57.504 43.7998 56.3084 42.5495C55.1128 41.2993 53.4913 40.5969 51.8005 40.5969C50.1097 40.5969 48.4882 41.2993 47.2926 42.5495C46.0971 43.7998 45.4254 45.4955 45.4254 47.2636V70.5969H32.6752V47.2636C32.6752 41.9592 34.6902 36.8722 38.2769 33.1214C41.8636 29.3707 46.7282 27.2636 51.8005 27.2636V27.2636Z" stroke="white" stroke-width="2" stroke-linecap="round" stroke-linejoin="round"/>
<path d="M19.9249 30.5969H7.17468V70.5969H19.9249V30.5969Z" stroke="white" stroke-width="2" stroke-linecap="round" stroke-linejoin="round"/>
<path d="M13.5498 20.5969C17.0707 20.5969 19.9249 17.6121 19.9249 13.9302C19.9249 10.2483 17.0707 7.26356 13.5498 7.26356C10.0289 7.26356 7.17468 10.2483 7.17468 13.9302C7.17468 17.6121 10.0289 20.5969 13.5498 20.5969Z" stroke="white" stroke-width="2" stroke-linecap="round" stroke-linejoin="round"/>
</svg>
