<svg xmlns="http://www.w3.org/2000/svg" viewBox="0 0 100.22 86.5"><defs><style>.cls-1{fill:#fff;}</style></defs><title>Asset 31</title><g id="Layer_2" data-name="Layer 2"><g id="Layer_2-2" data-name="Layer 2"><path class="cls-1" d="M99.62,44.4A1.94,1.94,0,0,0,98,43.7a7.46,7.46,0,0,0-1.53.23,6.35,6.35,0,0,1-1.36.21,1.67,1.67,0,0,1-.32,0c-2.9-.48-3.58-3.42-4.18-6A19.59,19.59,0,0,0,90,35.59a18.8,18.8,0,0,0-9.77-9.85c.76-3.52,1.36-9.53-2.8-11.31a2.59,2.59,0,0,0-1-.22,4.24,4.24,0,0,0-2.6,1.32l-.22.18A55.14,55.14,0,0,0,68,20.88l-.73-.21a53.11,53.11,0,0,0-7.71-1.78,14,14,0,0,0,3.18-6.54,9.49,9.49,0,0,0-2.17-7.93,12.09,12.09,0,0,0-9-4.42h-.21C43.1.41,38.29,4.11,37,11a9.33,9.33,0,0,0,2.41,7.93C31,20.43,19.66,24.09,12.84,33L12.72,33a6.75,6.75,0,0,1-3.28-2.8h0L9.9,30c1.94-.82,4.14-2.51,4.66-4.43a3.35,3.35,0,0,0-.63-3A3.59,3.59,0,0,0,11,21a5,5,0,0,0-4.65,4,7.68,7.68,0,0,0,.2,3.7H6.3a4.8,4.8,0,0,1-4.38-2.33.94.94,0,0,0-.83-.5,1.14,1.14,0,0,0-1,.55,1,1,0,0,0,0,1,6.88,6.88,0,0,0,6.2,3.31c.33,0,.66,0,1-.05a9.74,9.74,0,0,0,4.34,4,26.65,26.65,0,0,0-2.95,6c-3.08,8.94-.25,17.53,2.49,25.84,1.93,5.86,3.92,11.9,3.87,18.07a1,1,0,0,0,.28.7,1.11,1.11,0,0,0,.76.31,1,1,0,0,0,.87-.49,10.63,10.63,0,0,1,2.6-2.71,13.3,13.3,0,0,0,1.3-1.07c.6.26,1.71,1.83,2.6,3.1a18.14,18.14,0,0,0,1.32,1.74,1,1,0,0,0,.7.3,1.11,1.11,0,0,0,1-1,35.6,35.6,0,0,1,1.76-7c.38-1.16.75-2.32,1.07-3.48a80.88,80.88,0,0,0,18.18,2.15,55.26,55.26,0,0,0,14.37-1.74,58.9,58.9,0,0,1,2,8.89,1,1,0,0,0,1.75.71,25.88,25.88,0,0,0,2.26-2.29l.25-.26c.25-.24.59-.59.86-.91l.49.46a3.8,3.8,0,0,1,.4.38,44,44,0,0,0,3.21,3.11,1.12,1.12,0,0,0,.71.27,1,1,0,0,0,1-1l0-.86c.21-5.18.44-10.53,5-13.79,1.36-1,2.73-1.76,4.06-2.52,3-1.76,5.88-3.41,8-6.67,4.12,0,5.39-2.79,6.16-5.81.1-.39.28-.95.49-1.61.94-3,2.37-7.45,1-9.15m-9,15a19.54,19.54,0,0,1-8.54,7.26,15,15,0,0,0-6.25,4.64c-2.3,3.2-2.71,7.08-2.89,11.13l-.82-.87c-.76-.81-1.54-1.65-2.39-2.4a1.17,1.17,0,0,0-.74-.29,1,1,0,0,0-.7.3c-.57.58-1.09,1.19-1.62,1.79-.34.39-.67.79-1,1.17a74,74,0,0,0-2-8.23,1.06,1.06,0,0,0-1-.75.84.84,0,0,0-.27,0,52,52,0,0,1-14.76,1.92,79.51,79.51,0,0,1-18.69-2.32,1.15,1.15,0,0,0-.26,0,1,1,0,0,0-1,.75c-.36,1.53-.85,3.06-1.32,4.53-.53,1.67-1.08,3.39-1.45,5.13-.54-.66-1-1.34-1.55-2s-1-1.34-1.52-2a.85.85,0,0,0-.68-.31,1.18,1.18,0,0,0-.77.29c-.49.44-1,.84-1.51,1.25S17.61,81.44,17,82c-.42-5.2-2.15-10.29-3.82-15.22-2.32-6.86-4.72-14-3.55-21.29,2.91-18.31,23-23.42,31.65-24.79A12.84,12.84,0,0,0,48,23.36c.43,0,.85.05,1.27.05a13.34,13.34,0,0,0,8.25-2.7,37.16,37.16,0,0,1,8.62,1.76c.62.19,1.26.37,1.94.55a.86.86,0,0,0,.27.05.88.88,0,0,0,.54-.2l.17-.13A31.71,31.71,0,0,1,75.23,17a2.7,2.7,0,0,1,1.35-.47,1.24,1.24,0,0,1,1,.52c1.41,1.8.8,7.48.42,9.13a.83.83,0,0,0,.49,1.08,17,17,0,0,1,10,10.63,18.5,18.5,0,0,1,.46,2c.41,2,.87,4.3,2.32,5.43a5.68,5.68,0,0,0,3.27.9h.34a7.27,7.27,0,0,0,.84-.07A10.92,10.92,0,0,1,96.9,46c.58,0,.95.11,1.12.33a7.4,7.4,0,0,1-.38,1.93c0,.18-.09.32-.1.38-.11.53-.21,1.13-.31,1.76-.63,3.79-1.41,8.52-5.42,8.52h-.37a.9.9,0,0,0-.83.51M60.24,13.6a11.42,11.42,0,0,1-10.86,7.8,12.21,12.21,0,0,1-2.55-.27A9.58,9.58,0,0,1,40,16a9,9,0,0,1,.29-8.08c2.32-4.54,6.08-5.63,11-5.88h.19a9.35,9.35,0,0,1,7.59,4,8.24,8.24,0,0,1,1.13,7.57M9.16,24a2.38,2.38,0,0,1,1.65-.71,1.71,1.71,0,0,1,1.58.94,1.9,1.9,0,0,1-.47,2,7.26,7.26,0,0,1-3.31,2.11l0-.06A2.14,2.14,0,0,1,8.49,28C8,26.17,8.26,24.81,9.16,24"/><path class="cls-1" d="M78.86,37.33h0c-2.3,0-3.56,2.11-3.78,4.15a.86.86,0,0,0,.21.7,1,1,0,0,0,.73.3,1.09,1.09,0,0,0,1.11-1c.12-1,.78-2.14,1.79-2.14a1.56,1.56,0,0,1,.36.05c1.1.26,1.49,1.45,1.62,2.39a.82.82,0,0,0,.85.77,1.19,1.19,0,0,0,.88-.4,1.06,1.06,0,0,0,.25-.87,4.29,4.29,0,0,0-4-4"/><path class="cls-1" d="M50.71,4.57h0c-3.46.17-7.77,1.48-8.62,6.74A5.78,5.78,0,0,0,43.49,16a8.06,8.06,0,0,0,6,2.78h0a8,8,0,0,0,8.29-7.46A6,6,0,0,0,56,6.89a7.35,7.35,0,0,0-5.31-2.32m.1,2.05a5,5,0,0,1,4,2.07,4.35,4.35,0,0,1,.61,4,5.86,5.86,0,0,1-5.8,4.05H49.1a5.79,5.79,0,0,1-4.27-2.34,3.91,3.91,0,0,1-.52-3.47c.88-2.81,2.79-4.09,6.41-4.27Z"/><path class="cls-1" d="M52.52,24.63c-.48,0-.87,0-1.22,0-.71,0-2.12-.08-3.85-.08-6.08,0-13.44.7-13.93,4A2.24,2.24,0,0,0,34,30.29a3.56,3.56,0,0,0,2.37,1.23,15,15,0,0,0,1.51.07,36.75,36.75,0,0,0,5.17-.5,38.23,38.23,0,0,1,4.66-.49h.84c2.69,0,5.39.26,8,.52,1.84.18,3.76.36,5.66.46h.67c1.32,0,3.13-.22,3.49-2.18a2.35,2.35,0,0,0-.51-2c-2.11-2.59-10-2.73-13.32-2.79m3.22,4.24c-2.44-.22-4.67-.33-6.81-.33H47.68c-2,0-4.35.09-6.62.34l-.79.12a19.11,19.11,0,0,1-2.86.34c-.88,0-1.1-.19-1.16-.31s0-.39.25-.72c.47-.65,2.7-.88,3.9-1l.81-.1a51.62,51.62,0,0,1,7.92-.61c.74,0,1.49,0,2.24.05l1.34.05a44.62,44.62,0,0,1,6,.49l.18,0c3.42.58,4.23,1.16,4.3,1.55s-.32.58-.65.79a2,2,0,0,1-1,.15,28,28,0,0,1-4.26-.58c-.68-.13-1.24-.24-1.54-.27"/><path class="cls-1" d="M17.27,39.87a.93.93,0,0,0-.83.51,19,19,0,0,0-1.62,15.34,1,1,0,0,0,1,.71,1.07,1.07,0,0,0,.88-.43.89.89,0,0,0,.12-.84,16.81,16.81,0,0,1,1.43-13.75,1,1,0,0,0,0-1,1.17,1.17,0,0,0-1-.56"/><path class="cls-1" d="M20,35.71a.94.94,0,0,0-.75.33,1.05,1.05,0,0,0-.25.7,1,1,0,0,0,1,1,1,1,0,0,0,.75-.32,1.09,1.09,0,0,0,.25-.7,1,1,0,0,0-1-1"/></g></g></svg>