<svg xmlns="http://www.w3.org/2000/svg" viewBox="0 0 116.83 100.29"><defs><style>.cls-1{fill:#fff;}</style></defs><title>Asset 71</title><g id="Layer_2" data-name="Layer 2"><g id="Layer_2-2" data-name="Layer 2"><path class="cls-1" d="M116.74,65.05C116,54.88,113.46,47.17,109,41.49a37.72,37.72,0,0,0-20.34-13,36.66,36.66,0,0,0-8.19-1A34.1,34.1,0,0,0,72,28.66a2,2,0,0,0-.11,1.62,32.92,32.92,0,0,1,8.81-1.22,34.63,34.63,0,0,1,7.66.88,36.93,36.93,0,0,1,18,10.65c4.18,4.54,6.87,10.61,8.22,18.55a46,46,0,0,1,.84,9.77,33.77,33.77,0,0,1-3.27,11.85A29.27,29.27,0,0,1,97.66,95.59,34.62,34.62,0,0,1,82.92,98.8a38.32,38.32,0,0,1-22.66-7.5,39.91,39.91,0,0,1-11.76-14,29.79,29.79,0,0,1-2.25-5.93,3.62,3.62,0,0,0-1.58.34A39.5,39.5,0,0,0,54.84,88.57a40,40,0,0,0,28,11.72h0a37.69,37.69,0,0,0,9.48-1.22,33.13,33.13,0,0,0,24.38-34"/><path class="cls-1" d="M102.64,47.26A28.57,28.57,0,0,0,80,36.22a26.94,26.94,0,0,0-6.91.89c-.23.06-.46.15-.69.22a1.69,1.69,0,0,1,0,1.56,25.37,25.37,0,0,1,7.6-1.18,27.32,27.32,0,0,1,18.33,7c7.92,7.27,11.49,20.41,8.12,29.89a26.53,26.53,0,0,1-9.8,12.61,21.89,21.89,0,0,1-13,4.23,25.29,25.29,0,0,1-3-.18c-6.31-.74-12.83-2.11-17.74-7a34.47,34.47,0,0,1-9.1-16.11c-.39.44-.67,1.33-1.07,1.74a37.42,37.42,0,0,0,6.81,12.82,25.13,25.13,0,0,0,15.4,9.18,46.28,46.28,0,0,0,8.78,1,21.65,21.65,0,0,0,9.29-2A29.08,29.08,0,0,0,105.48,80.1c5.79-9.34,4.61-22.85-2.84-32.84"/><path class="cls-1" d="M94.65,84.05a.69.69,0,0,0,.39-.12,20.65,20.65,0,0,0,9.26-13.87.72.72,0,0,0-.16-.62.83.83,0,0,0-.63-.3.62.62,0,0,0-.64.55,19.23,19.23,0,0,1-8.59,13,.72.72,0,0,0-.31.84.75.75,0,0,0,.68.56"/><path class="cls-1" d="M104.14,65.1a.78.78,0,0,0,.18-.5.71.71,0,0,0-.73-.74.67.67,0,0,0-.53.23.78.78,0,0,0-.19.51.71.71,0,0,0,.72.74.69.69,0,0,0,.55-.24"/><polygon class="cls-1" points="80.21 70.99 91.98 64.6 86.1 74.79 80.21 84.98 74.33 74.79 68.44 64.6 80.21 70.99"/><polygon class="cls-1" points="80.21 59.3 91.98 64.6 86.1 54.4 80.21 44.21 74.33 54.4 68.44 64.6 80.21 59.3"/><polygon class="cls-1" points="68.44 64.6 80.21 59.3 91.98 64.6 80.21 70.99 68.44 64.6"/><path class="cls-1" d="M73.15,37.49c-.76-10.17-3.28-17.88-7.71-23.56A37.79,37.79,0,0,0,45.1,1,36.68,36.68,0,0,0,36.9,0,34.41,34.41,0,0,0,21.22,3.8c-5,2.55-14,8.06-17.7,16.36C.1,27.85-.9,36.54.85,43.41A39.18,39.18,0,0,0,11.24,61,40,40,0,0,0,39.29,72.73h0a37.17,37.17,0,0,0,9.47-1.23,33.13,33.13,0,0,0,24.39-34m-1.36,3.86A33.77,33.77,0,0,1,68.52,53.2,29.3,29.3,0,0,1,54.07,68a34.66,34.66,0,0,1-14.74,3.21,38.3,38.3,0,0,1-22.66-7.5,39.94,39.94,0,0,1-11.77-14c-3.47-6.84-4.09-13.83-2-22.66,1.26-5.35,3-8.92,5.68-11.95a46,46,0,0,1,9.67-7.95A34.85,34.85,0,0,1,37.06,1.5a34.48,34.48,0,0,1,7.65.88A37,37,0,0,1,62.73,13c4.18,4.54,6.86,10.61,8.22,18.55a46,46,0,0,1,.84,9.77"/><path class="cls-1" d="M36.44,8.66a26.94,26.94,0,0,0-6.91.89C17.34,12.78,7.7,26.11,8.5,38.67,9.14,44,11.9,50,16.07,55.19a25.18,25.18,0,0,0,15.41,9.18,45.47,45.47,0,0,0,8.77,1,21.67,21.67,0,0,0,9.3-1.95A29.14,29.14,0,0,0,61.89,52.54C67.67,43.2,66.5,29.69,59,19.7a28.57,28.57,0,0,0-22.6-11M62.91,47.08a26.65,26.65,0,0,1-9.8,12.61,21.91,21.91,0,0,1-13,4.23,25.16,25.16,0,0,1-3-.18c-6.31-.74-12.83-2.11-17.74-7S10.71,44.64,10,38.65c-.63-9.94,6.13-21.34,15.38-25.95a24.89,24.89,0,0,1,11.09-2.55,27.32,27.32,0,0,1,18.34,7c7.92,7.28,11.48,20.41,8.12,29.89"/><path class="cls-1" d="M24.16,18.43a.71.71,0,0,0-.39.12,20.65,20.65,0,0,0-9.26,13.87.72.72,0,0,0,.16.62.87.87,0,0,0,.64.3.62.62,0,0,0,.63-.55,19.23,19.23,0,0,1,8.59-13,.72.72,0,0,0,.31-.84.75.75,0,0,0-.68-.56"/><path class="cls-1" d="M27.07,18.11a.78.78,0,0,0,.18-.51.7.7,0,0,0-.72-.74.67.67,0,0,0-.54.24.73.73,0,0,0-.18.5.71.71,0,0,0,.72.74.69.69,0,0,0,.54-.23"/><path class="cls-1" d="M48.89,39.41a9.62,9.62,0,0,0-5.43-2.82q4.76-2,4.75-6.58a7.87,7.87,0,0,0-1.13-4.21A7.74,7.74,0,0,0,43.77,23a14.22,14.22,0,0,0-6-1H36.39V18.34H34.51v3.57H33.23V18.34H31.35v3.57H29.58V53.09h1.77V56.4h1.88V53.09h1.28V56.4h1.88V53.09h3.74a13.25,13.25,0,0,0,5.95-1.18,8.94,8.94,0,0,0,3.61-3.06,7.58,7.58,0,0,0,1.22-4.26,7.31,7.31,0,0,0-2-5.18M34,25.88h3.84q5.71,0,5.71,4.49a4.56,4.56,0,0,1-1.5,3.53c-1,.9-2.7,1.36-5.08,1.36H34ZM45.5,46.77a4.66,4.66,0,0,1-2.1,1.78,14.26,14.26,0,0,1-5,.57H34V39.23h4.18a14.8,14.8,0,0,1,4.86.58,5,5,0,0,1,2.38,1.76,4.47,4.47,0,0,1,.83,2.61,4.59,4.59,0,0,1-.79,2.59"/></g></g></svg>