<svg width="78" height="81" viewBox="0 0 78 81" fill="none" xmlns="http://www.w3.org/2000/svg">
<path d="M51.7079 73.9302V61.0302C51.8275 59.4408 51.6222 57.8429 51.1055 56.3429C50.5889 54.8428 49.7729 53.475 48.7116 52.3302C58.7206 51.1636 69.2395 47.1969 69.2395 28.9969C69.2387 24.343 67.5268 19.8676 64.4582 16.4969C65.9112 12.4252 65.8085 7.92472 64.1713 3.93023C64.1713 3.93023 60.41 2.76356 51.7079 8.86356C44.4021 6.79297 36.7009 6.79297 29.395 8.86356C20.693 2.76356 16.9317 3.93023 16.9317 3.93023C15.2945 7.92472 15.1918 12.4252 16.6448 16.4969C13.5533 19.8926 11.8397 24.4084 11.8635 29.0969C11.8635 47.1636 22.3824 51.1302 32.3913 52.4302C31.3426 53.5635 30.5338 54.9149 30.0176 56.3966C29.5014 57.8783 29.2892 59.4571 29.395 61.0302V73.9302M29.395 63.9302C13.4573 68.9302 13.4573 55.5969 7.08215 53.9302L29.395 63.9302Z" stroke="white" stroke-width="2" stroke-linecap="round" stroke-linejoin="round"/>
</svg>
