<svg width="78" height="81" viewBox="0 0 78 81" fill="none" xmlns="http://www.w3.org/2000/svg">
<path d="M54.988 7.49107H23.1125C14.3103 7.49107 7.17468 14.953 7.17468 24.1577V57.4911C7.17468 66.6958 14.3103 74.1577 23.1125 74.1577H54.988C63.7902 74.1577 70.9258 66.6958 70.9258 57.4911V24.1577C70.9258 14.953 63.7902 7.49107 54.988 7.49107Z" stroke="white" stroke-width="2" stroke-linecap="round" stroke-linejoin="round"/>
<path d="M51.8004 38.7244C52.1938 41.4986 51.7407 44.3318 50.5055 46.8211C49.2703 49.3104 47.316 51.3291 44.9205 52.59C42.525 53.8509 39.8103 54.2897 37.1625 53.8442C34.5147 53.3986 32.0687 52.0913 30.1723 50.1083C28.276 48.1252 27.0259 45.5673 26.5998 42.7984C26.1737 40.0296 26.5934 37.1907 27.7992 34.6857C29.0049 32.1806 30.9353 30.1369 33.3157 28.8452C35.6962 27.5535 38.4055 27.0797 41.0584 27.4911C43.7644 27.9107 46.2695 29.2293 48.2039 31.2521C50.1382 33.2749 51.3992 35.8947 51.8004 38.7244Z" stroke="white" stroke-width="2" stroke-linecap="round" stroke-linejoin="round"/>
<path d="M56.5818 22.4911H56.6148" stroke="white" stroke-width="2" stroke-linecap="round" stroke-linejoin="round"/>
</svg>
