<?xml version="1.0" standalone="no"?>
<!DOCTYPE svg PUBLIC "-//W3C//DTD SVG 20010904//EN"
 "http://www.w3.org/TR/2001/REC-SVG-20010904/DTD/svg10.dtd">
<svg version="1.0" xmlns="http://www.w3.org/2000/svg"
 width="1280.000000pt" height="840.000000pt" viewBox="0 0 1280.000000 840.000000"
 preserveAspectRatio="xMidYMid meet">
<metadata>
Created by potrace 1.16, written by Peter Selinger 2001-2019
</metadata>
<g transform="translate(0.000000,840.000000) scale(0.100000,-0.100000)"
fill="#000000" stroke="none">
<path d="M3973 7139 c-95 -47 -170 -202 -188 -389 -4 -36 1 -634 9 -1330 8
-696 20 -1791 26 -2435 6 -643 15 -1395 20 -1670 8 -453 12 -528 36 -606 4
-15 -29 -26 -130 -43 -16 -3 -52 -10 -80 -15 -28 -6 -89 -18 -136 -27 -47 -9
-93 -20 -102 -25 -9 -5 -40 -10 -68 -11 -28 -1 -56 -8 -62 -15 -6 -7 -14 -11
-18 -8 -11 7 -80 -26 -80 -37 0 -5 6 -6 13 -2 7 4 9 3 4 -2 -8 -9 -12 -10 -38
-13 -8 -1 -8 -6 1 -16 7 -8 9 -15 4 -15 -5 0 -2 -5 6 -11 12 -8 10 -10 -10 -5
-24 5 -24 4 -6 -9 10 -8 22 -12 27 -10 8 6 24 -14 24 -30 0 -5 12 -9 27 -7 17
2 30 -3 37 -15 6 -10 11 -14 11 -9 0 5 8 2 17 -5 15 -12 16 -12 8 1 -8 13 -7
13 8 1 9 -7 17 -11 17 -7 0 4 11 -1 25 -10 14 -9 31 -14 40 -11 8 4 17 2 20
-3 3 -5 13 -6 22 -3 10 4 14 2 9 -5 -4 -7 2 -9 19 -6 14 2 25 0 25 -5 0 -6 6
-8 14 -5 8 3 17 1 20 -4 3 -6 16 -8 28 -4 13 3 19 1 15 -5 -4 -6 3 -8 18 -5
16 3 25 0 25 -8 0 -7 6 -10 14 -7 7 3 24 -2 37 -10 12 -9 19 -11 15 -5 -5 8
-2 10 8 6 9 -3 16 -11 16 -16 0 -5 5 -8 12 -6 17 6 66 -49 73 -83 4 -16 11
-29 16 -29 5 0 9 -9 9 -20 0 -11 5 -20 11 -20 6 0 9 -9 6 -20 -3 -10 0 -21 5
-22 6 -2 11 -18 11 -36 l2 -32 1195 0 c1238 1 1230 0 1230 39 0 6 5 11 11 11
8 0 9 4 0 13 -6 8 -9 17 -6 20 3 4 2 5 -1 2 -4 -2 -12 1 -19 8 -21 20 -52 40
-61 39 -5 0 -17 7 -27 15 -9 9 -20 13 -24 10 -3 -4 -12 -2 -20 4 -7 6 -13 9
-13 5 0 -3 -17 0 -37 8 -21 8 -51 18 -68 22 -16 4 -32 8 -35 9 -17 6 -59 15
-80 19 -14 2 -37 7 -51 11 l-27 7 16 61 c19 71 18 -152 2 3827 -6 1422 -15
2514 -20 2566 -23 219 -129 400 -252 432 -42 11 -944 32 -1363 32 -183 0 -204
-2 -242 -21z m1660 -48 c20 -12 46 -36 58 -53 l22 -30 -23 12 c-13 7 -56 12
-99 11 -90 -1 -130 9 -184 46 l-40 28 34 6 c19 3 70 5 115 4 64 -1 88 -6 117
-24z m-1393 -98 c2 -2 7 -37 11 -77 8 -79 28 -129 56 -141 23 -9 626 -29 657
-21 33 8 57 64 65 150 l6 71 125 3 c146 3 175 -7 226 -75 46 -60 73 -139 83
-246 8 -75 22 -2524 34 -5797 2 -567 1 -576 -68 -657 -59 -69 -55 -69 -466 57
-200 62 -481 148 -624 192 -143 43 -273 87 -290 97 -37 21 -89 106 -117 191
-20 61 -21 96 -29 550 -4 267 -13 984 -18 1594 -9 880 -8 1112 2 1125 9 12 9
13 0 7 -9 -5 -13 0 -13 13 0 15 6 21 21 21 20 0 20 -2 16 -245 -2 -135 0 -245
4 -245 5 0 9 4 9 9 0 5 38 41 85 81 l85 72 0 97 c-1 118 -35 238 -66 233 -24
-3 -54 62 -79 170 -15 70 -19 77 -35 68 -39 -21 -41 -14 -38 122 l3 132 32 9
c24 7 34 17 38 38 7 32 -1 69 -16 69 -5 0 -9 5 -9 11 0 6 6 9 14 6 8 -3 17 -1
20 6 3 7 4 -73 3 -178 -1 -104 2 -192 7 -195 17 -10 39 83 33 145 -4 45 -1 74
14 115 11 33 19 81 19 122 0 44 9 95 26 149 l26 83 -7 343 -8 343 -57 0 -57 0
-17 -72 c-11 -50 -17 -115 -16 -203 0 -71 0 -139 0 -150 0 -39 10 -63 30 -68
19 -5 20 -13 20 -181 0 -105 -4 -176 -10 -176 -5 0 -10 26 -12 58 -3 54 -4 57
-28 56 -14 0 -32 -3 -40 -5 -13 -3 -15 40 -17 339 -1 213 1 342 7 342 15 0 12
27 -4 33 -11 4 -14 110 -20 569 -8 614 -6 650 47 754 47 93 76 106 222 98 61
-4 112 -8 115 -11z m1420 -133 c91 0 116 -20 136 -110 14 -60 14 -65 -2 -77
-11 -8 -49 -13 -100 -13 -79 0 -83 1 -103 28 -11 16 -27 59 -35 96 -22 93 -22
98 10 86 14 -6 56 -10 94 -10z"/>
<path d="M5294 6205 c-27 -65 -10 -159 32 -175 53 -21 54 -18 54 100 l0 110
-36 0 c-31 0 -37 -4 -50 -35z"/>
<path d="M5050 4344 c0 -14 -5 -35 -12 -47 -11 -22 -19 -366 -8 -368 3 0 13
-2 23 -4 12 -2 17 4 18 23 0 15 3 72 6 127 7 127 6 199 -2 253 -8 46 -25 58
-25 16z"/>
<path d="M3960 2423 c-2 -39 3 -895 5 -915 4 -42 6 -45 16 -18 7 22 8 21 2 -5
-3 -16 -8 -85 -10 -152 -3 -97 -1 -123 9 -123 7 0 19 10 26 21 14 21 14 21 44
-15 16 -20 38 -36 49 -36 11 0 17 5 14 10 -3 6 4 10 18 10 31 0 75 47 83 90
10 51 29 84 58 100 14 7 26 17 26 22 0 11 0 11 -49 -13 -25 -12 -41 -25 -38
-33 3 -7 -4 -18 -14 -24 -10 -7 -19 -8 -19 -3 0 6 4 12 10 16 5 3 7 12 4 19
-3 8 20 30 61 56 59 38 64 44 51 59 -17 19 -16 83 2 89 7 2 23 -3 36 -12 l24
-15 8 102 8 102 12 -120 c7 -66 14 -159 15 -207 2 -80 4 -89 26 -103 34 -23
95 -119 98 -155 1 -17 11 -37 22 -45 10 -7 32 -32 47 -54 16 -23 33 -41 37
-41 5 0 9 278 9 619 0 582 -1 620 -17 625 -10 3 -157 37 -328 76 -170 39 -318
73 -327 76 -10 3 -18 2 -18 -3z m140 -783 c-16 -10 -14 -11 33 -13 24 -2 31
-9 42 -41 8 -22 13 -43 12 -47 -1 -4 7 -15 18 -23 17 -13 18 -17 5 -25 -27
-18 -160 -9 -160 11 0 5 10 23 21 40 20 28 20 29 3 26 -32 -5 -31 45 2 71 15
12 30 19 33 16 3 -4 -1 -10 -9 -15z"/>
<path d="M4690 2063 c0 -119 5 -214 12 -238 14 -48 22 -336 10 -317 -7 10 -11
7 -14 -13 -6 -32 1 -65 13 -65 5 0 9 -9 9 -20 0 -11 -4 -20 -10 -20 -5 0 -9
-15 -7 -34 1 -19 5 -32 10 -29 4 2 7 -5 7 -16 0 -15 -4 -19 -17 -14 -14 6 -15
-1 -10 -57 4 -35 7 -84 7 -109 1 -44 3 -47 44 -66 l43 -21 11 28 c9 23 15 27
46 26 22 -1 36 -6 36 -14 0 -8 -6 -11 -15 -8 -12 5 -15 -4 -15 -49 0 -53 1
-55 33 -67 17 -6 61 -14 97 -17 l64 -6 -33 41 c-18 23 -37 44 -42 47 -21 13
-7 25 30 25 23 0 48 -8 62 -18 21 -17 21 -22 11 -63 -10 -38 -9 -46 6 -57 16
-12 17 -8 20 48 3 54 5 60 25 60 12 0 39 -9 59 -20 l38 -20 6 25 6 24 39 -26
c37 -24 38 -26 24 -53 -10 -20 -11 -30 -2 -39 19 -19 27 -12 27 24 0 42 17 45
49 11 18 -19 21 -30 15 -65 -4 -22 -12 -41 -18 -41 -14 -1 35 -29 52 -30 9 0
12 35 12 145 0 81 -4 145 -9 145 -5 0 -11 -4 -13 -10 -1 -5 -13 -7 -25 -4 -22
6 -23 10 -23 140 0 73 4 135 8 138 5 3 15 -6 22 -19 7 -14 19 -25 27 -25 11 0
13 71 12 390 0 215 -2 390 -4 390 -3 0 -164 36 -359 80 -195 44 -359 80 -365
80 -8 0 -11 -61 -11 -197z m122 -318 l27 -30 1 -238 0 -237 -27 6 c-73 18 -70
13 -71 125 -2 83 1 106 15 121 15 17 15 18 0 18 -15 0 -17 16 -17 138 0 76 3
142 7 145 7 8 26 -6 65 -48z m102 -73 c10 -12 24 -18 32 -15 12 4 14 -31 14
-225 l0 -230 -50 16 -50 16 0 238 c0 225 1 238 18 229 9 -5 25 -18 36 -29z
m248 -252 l51 0 -6 -61 c-3 -33 -7 -62 -9 -64 -2 -2 -45 8 -96 22 -51 14 -95
23 -99 20 -11 -11 18 -64 53 -98 19 -18 34 -41 34 -51 0 -21 -2 -22 -60 -4
l-45 13 -3 123 -3 122 25 -6 c13 -3 32 -9 42 -13 12 -4 15 -3 10 5 -4 7 -2 12
3 12 6 0 11 7 11 16 0 12 6 10 21 -10 17 -22 28 -26 71 -26z m151 -7 c11 4 16
-5 21 -31 8 -53 7 -282 -1 -282 -5 0 -28 6 -53 14 l-45 13 -3 154 c-1 84 0
160 3 168 4 11 12 8 35 -14 16 -15 35 -25 43 -22z"/>
<path d="M4573 919 c-18 -19 -17 -172 1 -208 12 -23 29 -32 94 -50 98 -28 113
-26 125 19 12 48 3 155 -17 184 -24 38 -180 79 -203 55z"/>
<path d="M4402 518 c3 -18 41 -32 278 -104 151 -46 278 -84 283 -84 4 0 7 8 7
18 0 19 8 16 -463 158 -105 31 -108 32 -105 12z"/>
<path d="M8380 7130 c-365 -6 -364 -6 -466 -58 -56 -29 -136 -103 -174 -162
-18 -28 -46 -85 -64 -128 l-31 -77 -3 -3213 c-2 -3156 -2 -3213 17 -3270 11
-31 23 -65 26 -74 6 -14 -5 -21 -62 -37 -37 -11 -79 -22 -93 -25 -74 -12 -101
-19 -106 -27 -3 -5 -13 -9 -22 -9 -9 0 -39 -11 -67 -25 l-50 -24 445 0 c423 0
443 1 397 16 -65 22 -139 91 -174 161 l-28 57 -3 3145 c-2 2072 1 3174 8 3229
17 148 88 259 202 318 52 26 59 27 282 34 144 5 236 4 248 -2 13 -7 18 -22 18
-52 1 -50 21 -110 47 -139 40 -46 44 -46 653 -39 l575 6 34 24 c42 30 70 92
71 152 0 28 6 51 14 58 11 9 76 12 238 9 220 -3 224 -3 274 -30 63 -33 118
-94 153 -167 l26 -56 -1 -745 c-1 -410 -7 -1157 -13 -1660 -6 -503 -15 -1408
-21 -2010 -14 -1321 -24 -1792 -39 -1841 -19 -60 -87 -156 -138 -193 -89 -66
38 -49 -1438 -191 -429 -41 -789 -77 -800 -79 -11 -2 539 -4 1223 -5 1228 -1
1242 -1 1242 19 0 22 38 62 52 54 4 -3 23 0 42 6 44 14 87 24 158 34 43 7 142
49 152 64 3 6 2 13 -4 17 -5 3 -10 15 -10 26 0 10 -6 19 -13 19 -7 0 -19 6
-26 13 -6 6 -15 12 -19 13 -4 0 -25 9 -46 18 -22 10 -94 31 -161 48 l-122 30
23 70 c36 107 29 -291 74 4118 5 525 13 1214 16 1530 8 637 6 661 -52 787 -56
125 -157 214 -285 254 -56 18 -106 18 -947 17 -488 -1 -1042 -5 -1232 -8z"/>
<path d="M10437 6719 c-30 -17 -49 -80 -56 -184 l-6 -100 -20 35 -20 35 -3
-34 c-4 -43 16 -85 34 -70 9 7 12 2 11 -22 -2 -27 4 -37 32 -56 63 -43 86 -10
35 49 -24 30 -44 86 -44 128 0 32 65 183 81 189 8 2 10 -2 6 -13 -6 -16 44
-119 64 -132 15 -9 10 -76 -11 -134 -31 -88 -25 -112 18 -67 42 44 64 112 58
180 -9 114 -36 170 -91 193 -40 16 -63 17 -88 3z"/>
<path d="M9715 2053 c4 -10 8 -25 10 -33 2 -8 8 -27 14 -42 6 -16 8 -28 5 -28
-4 0 -2 -6 4 -12 5 -7 13 -26 15 -43 3 -16 19 -77 36 -135 16 -58 45 -184 64
-280 34 -169 61 -260 77 -260 4 0 7 11 6 24 0 13 -4 22 -9 19 -4 -2 -5 14 -1
36 5 29 3 41 -6 41 -8 0 -10 8 -6 25 5 18 2 25 -9 25 -8 0 -14 3 -13 8 2 4 -3
21 -9 37 -14 33 -71 293 -80 363 -6 49 3 55 18 12 6 -16 15 -30 21 -30 5 0 6
4 3 10 -3 6 1 7 9 4 24 -9 19 5 -14 43 -17 19 -53 79 -80 134 -28 54 -53 99
-56 99 -3 0 -3 -8 1 -17z"/>
<path d="M18 858 c-3 -7 5 -21 16 -31 l21 -18 -23 6 -22 6 0 -234 c0 -196 2
-237 15 -247 8 -7 12 -17 9 -22 -4 -6 -10 -5 -15 3 -7 11 -9 10 -9 -3 0 -10 5
-18 11 -18 8 0 8 -5 -1 -15 -10 -12 -10 -15 4 -15 9 0 16 -4 16 -10 0 -5 7 -7
15 -4 8 4 15 10 15 16 0 5 -4 7 -9 4 -5 -3 -11 0 -14 7 -3 10 4 12 28 11 31
-3 32 -2 44 51 12 52 41 97 41 62 0 -8 7 -17 15 -21 13 -4 13 -2 5 14 -12 23
-13 30 -1 30 5 0 12 -13 16 -29 3 -16 13 -36 22 -43 21 -17 75 -18 68 0 -2 6
2 12 10 12 8 0 12 8 10 19 -3 15 1 19 15 16 22 -4 45 19 35 35 -5 8 -11 6 -19
-6 -10 -13 -15 -14 -21 -5 -4 7 -2 18 4 24 14 14 61 17 61 5 0 -4 7 -8 15 -8
11 0 12 5 5 24 -6 18 -5 28 5 36 10 8 14 8 18 -2 3 -10 9 -10 25 -1 18 10 19
9 14 -9 -4 -17 -2 -19 17 -13 12 4 21 2 21 -4 0 -6 -4 -11 -10 -11 -16 0 -12
-18 9 -39 12 -12 23 -16 32 -10 11 7 11 9 -2 9 -19 0 -33 26 -19 35 6 4 10 2
10 -4 0 -14 50 -7 60 9 5 7 17 10 30 7 18 -5 19 -3 8 10 -12 15 -11 15 10 4
19 -10 26 -10 38 0 13 11 13 14 1 21 -20 11 -10 45 15 51 18 5 19 4 4 -12 -14
-15 -14 -18 4 -34 11 -9 25 -17 30 -17 12 0 13 17 2 24 -5 3 -8 15 -7 28 1 18
7 22 26 21 22 -2 22 -2 4 6 -11 4 -24 7 -30 5 -28 -9 -65 -12 -65 -4 0 6 -200
14 -290 11 -14 0 -20 2 -14 7 6 4 10 15 8 25 -1 10 3 16 9 14 7 -3 11 -10 9
-17 -2 -8 3 -10 13 -7 8 4 15 2 15 -4 0 -6 7 -6 20 1 15 8 19 17 15 33 -6 20
-5 21 8 5 15 -19 37 -24 37 -9 0 5 9 11 21 14 16 4 18 3 8 -9 -7 -9 -8 -14 -1
-14 6 0 14 5 17 10 4 6 11 7 17 4 6 -4 13 -3 17 2 9 13 51 35 50 27 -3 -18 2
-33 10 -33 4 0 7 12 7 28 -1 15 3 33 8 40 5 7 6 15 3 18 -3 3 -69 6 -146 6
-111 1 -137 4 -124 13 14 11 14 12 -1 18 -10 4 -15 3 -11 -3 3 -6 0 -10 -9
-10 -8 0 -17 6 -19 13 -4 9 -6 9 -6 -1 -1 -7 -6 -10 -11 -7 -6 3 -8 18 -5 33
5 26 5 26 -5 4 -8 -19 -30 -23 -30 -6 0 3 5 2 10 -1 6 -3 10 -2 10 4 0 19 -23
24 -124 23 l-102 0 -13 29 c-13 31 -27 37 -33 17z"/>
</g>
</svg>
