<svg xmlns="http://www.w3.org/2000/svg" viewBox="0 0 91.97 55.97"><defs><style>.cls-1{fill:#fff;}</style></defs><title>Asset 41</title><g id="Layer_2" data-name="Layer 2"><g id="Layer_2-2" data-name="Layer 2"><path class="cls-1" d="M91.79,21.17a76.85,76.85,0,0,0-.07-11.46c-.25-2.23-.65-4.73-1.78-6.29A8.8,8.8,0,0,0,83.6.23C81.94.07,80.15,0,78,0c-1.63,0-3.28,0-4.91.08s-3.25.09-4.86.09l-1.66,0C61.91.05,57.07,0,51.76,0,46.08,0,40,.06,32.06.18c-2.4,0-4.81,0-7.21.05-4.1,0-8.33.05-12.49.19C7.8.58,4.62,1.9,2.64,4.44.27,7.48.28,12.19.28,16.34c0,1,0,2,0,2.89-.12,3.07-.08,6.18,0,9.2S.3,34.82.16,38L.1,39.48C-.15,45.29-.52,54.06,6.64,55.3a29.11,29.11,0,0,0,5,.36c1.22,0,2.45,0,3.67-.08s2.42-.09,3.61-.09h.85q3.64.06,7.28.06c3,0,6.06,0,9.1-.05,3.58,0,7.17-.11,10.76-.18,4.72-.1,9.59-.2,14.37-.2,3.59,0,6.81.06,9.82.17,1,0,2.17.15,3.43.28,1.88.18,4,.39,6.09.39,3.87,0,9.19-.62,10.6-6a31.64,31.64,0,0,0,.52-8.27c0-.81,0-1.6,0-2.33,0-1.92,0-3.83,0-5.73,0-3.74-.08-7.61.07-11.43Zm-2,21.44c0,3.07.1,6.89-1.73,9-1.48,1.71-3.71,2.5-7,2.5a41.8,41.8,0,0,1-4.5-.31c-.88-.09-1.73-.17-2.52-.22-3-.18-6.18-.26-9.86-.26-3.36,0-6.73.07-10.09.14-2.45,0-4.9.1-7.35.12q-7.74.07-15.47.07c-4.54,0-9.07,0-13.71,0-.86,0-1.87.07-2.94.14-1.27.09-2.57.18-3.89.18-2.46,0-5.9-.28-7.44-2.71C1.55,48.39,1.79,43.35,2,39.67,2,39.09,2,38.54,2,38c.17-3.82.16-7.69.15-11.44v-2q2.78,0,5.55,0c6.13,0,12.36.09,18.39.17s12.26.17,18.39.17h1.71q6.63,0,13.24-.1c5.23-.05,10.46-.09,15.69-.09,5.52,0,10.36.05,14.82.17,0,4.36,0,10.08-.15,15.86,0,.56,0,1.19,0,1.85M5.56,4.3c2-1.51,4.07-1.89,6.81-2,3.13-.14,6.33-.14,9.42-.14,1.92,0,3.84,0,5.76,0C38.67,1.94,49,1.85,59,1.85c7.57,0,15,.06,22.16.16,3.3.05,6.84.64,8.06,4.66a20,20,0,0,1,.76,5c-9.79.41-20.37.6-33.25.6-8.06,0-16.25-.08-24.16-.15S16.43,12,8.37,12H2.53c.23-3.08.43-5.74,3-7.72m3.58,9.59h4.37c-3.68,3.16-7.58,6.18-11.06,8.86l.09.14-.26-.15H2.19c0-1.13,0-2.25,0-3.27,2.22-2,4.54-3.82,7-5.58m67.74,9H71.46c3.39-2.6,7.26-5.62,10.88-8.82a1,1,0,0,0,.19-.23l5.74-.19c-3.73,3.22-7.6,6.22-11.27,9-.1.08-.19.17-.12.21m-13.8.06C66.5,20.29,70.4,17.25,74,14l1.07,0,4.58-.09c-3.67,3.15-7.56,6.16-10.94,8.74a1.15,1.15,0,0,0-.22.22Zm-8.4.07c3.43-2.64,7.34-5.68,10.88-8.86l5.57-.07c-3.62,3.11-7.44,6.06-10.75,8.59a.78.78,0,0,0-.25.29ZM24.43,14l5.28,0c-3.63,3.12-7.48,6.09-10.82,8.65-.08.05-.13.12-.06.14l-5.17-.06c4-3.1,7.43-5.79,10.77-8.77m13.44.11c-3.61,3.1-7.43,6.05-10.75,8.58a1,1,0,0,0-.22.23l-5.19-.06c3.34-2.56,7.16-5.54,10.82-8.8Zm8.24.06c-3.59,3.08-7.38,6-10.67,8.52a.93.93,0,0,0-.28.34l-5.33-.07c3.39-2.61,7.28-5.63,10.89-8.83Zm8.28,0c-3.59,3.07-7.37,6-10.64,8.49a.92.92,0,0,0-.29.38Q40.74,23,38,23c3.41-2.61,7.31-5.65,10.94-8.86l5.42,0m2.81,0,4.23,0h1.3c-3.6,3.08-7.38,6-10.66,8.51a.9.9,0,0,0-.29.35L46.3,23c3.43-2.63,7.34-5.68,10.9-8.87m-41-.12.12-.14c1.77,0,3.54,0,5.3,0-3.67,3.15-7.54,6.14-10.91,8.79H5.5c4.05-3.11,7.44-5.8,10.7-8.68M2.28,16.93c0-1,.08-2,.14-3H6.07c-1.31,1-2.58,2-3.79,3M90,19.39l-4.23,3.26a.94.94,0,0,0-.26.3l-1.7,0c-1.36,0-2.71-.05-4.07-.06,3.34-2.56,6.87-5.33,10.21-8.25v3.74ZM90,21.79V23L88.4,23Z"/><path class="cls-1" d="M12.31,37.32l10.56-.14c.68,0,1.41,0,2.16.06s1.62.07,2.43.07a13.09,13.09,0,0,0,3.46-.37.92.92,0,0,0,.65-.66,12.58,12.58,0,0,0,.05-3.93c0-.52-.09-1-.1-1.49a1,1,0,0,0-.94-.94l-20.85.25a.81.81,0,0,0-.48.15.81.81,0,0,0-.46.79c0,.94,0,1.75,0,2.44-.06,1.46-.1,2.42.49,3s1.41.74,3.06.74m4-1.81a27,27,0,0,1-2.8.21,3.77,3.77,0,0,1-1.6-.25c-1.42-.75-1.35-1.7-1.27-3l0-.41,11-.13c.65,0,1.31,0,2-.06s1.56-.07,2.34-.07c.55,0,1.1,0,1.7.06a2.55,2.55,0,0,1,.75-.12,2,2,0,0,1,1.28.44l.11,2.23c-.47.84-2.25,1.26-5.3,1.26-1.49,0-3-.09-4.29-.17-.88,0-1.63-.1-2.22-.1h0c-.42,0-1,.07-1.69.14"/><path class="cls-1" d="M69.21,30.86a1,1,0,0,0-.94-.94c-5.08.07-10.16.1-15.24.13s-10.16.06-15.24.12a.88.88,0,0,0-.48.15.83.83,0,0,0-.46.79,14.38,14.38,0,0,1-.09,1.66c-.18,1.82-.37,3.89,1.42,4.55a3.48,3.48,0,0,0,1.2.17c.52,0,1.08-.06,1.6-.11s.81-.07,1.12-.08l17.57-.14c.79,0,1.63,0,2.5.09s1.87.09,2.8.09a13.62,13.62,0,0,0,3.64-.4.92.92,0,0,0,.65-.66,12.64,12.64,0,0,0,0-3.94c0-.52-.09-1-.1-1.48m-8.7,4.42L43,35.42c-.29,0-.65,0-1,.07s-.88.08-1.29.08a2.88,2.88,0,0,1-.92-.11c-1.22-.39-1.15-1.69-1.06-3.07l0-.35q6.43-.08,12.89-.11L63,31.85c.3,0,.69,0,1.11-.08s1.1-.1,1.62-.1a3,3,0,0,1,1.07.14,1.49,1.49,0,0,0,.4.11s0,0,0,0a1.88,1.88,0,0,0,.17.26,5.54,5.54,0,0,1-.06,2.66c-.28.41-1.27.61-3,.61-.85,0-1.75,0-2.5-.09-.55,0-1-.06-1.38-.06"/><path class="cls-1" d="M44.64,40.78h0c-3.42,0-6.83.06-10.25.08L19.32,41c-.85,0-1.78-.05-2.74-.1s-2.1-.11-3.14-.11a14.38,14.38,0,0,0-3.88.42.94.94,0,0,0-.65.66,12.64,12.64,0,0,0-.05,3.94c0,.51.08,1,.1,1.48a1,1,0,0,0,.93.94h0c6.13-.08,12.27-.1,18.4-.13s12.31-.05,18.47-.12a.83.83,0,0,0,.48-.15A.81.81,0,0,0,47.7,47c0-.81,0-1.56.06-2.23.08-1.43.15-2.56-.51-3.26a3.46,3.46,0,0,0-2.61-.73m-2.87,1.85c.53,0,1.07-.08,1.59-.08a7.35,7.35,0,0,1,1.25.1,1.71,1.71,0,0,0,.36,0l.37,0c.09,0,.19,0,.4.32a5.83,5.83,0,0,1,.16,2.82l0,.26c-4.84.06-9.67.08-14.51.1l-14.83.09-4.44,0h-.23c-.28,0-.76.05-1.1.05H10.6a12,12,0,0,0,.13-2.27v-.32a.45.45,0,0,0,0-.11l.12-.37c0-.13.08-.24.18-.26a3.35,3.35,0,0,0,.79-.14,2.61,2.61,0,0,1,.63-.07l.67,0c.21,0,.41,0,.62,0l26.67-.18c.43,0,.9,0,1.38-.06"/><path class="cls-1" d="M84.75,43.19a1.07,1.07,0,0,0-.81.37,1,1,0,0,0-.2.79A3.14,3.14,0,0,1,83,47c-1.37,1.63-4.31,2.36-6.63,2.36a9.38,9.38,0,0,1-1.25-.08H75a1,1,0,0,0-1,1,.77.77,0,0,0,.69.86,11.53,11.53,0,0,0,1.7.12c2.54,0,6.18-.8,8.07-3.06a5,5,0,0,0,1.09-4.3.78.78,0,0,0-.8-.69"/><path class="cls-1" d="M84.6,41.27a.87.87,0,0,0,.69-.3,1,1,0,0,0,.22-.64.89.89,0,0,0-.91-.93.85.85,0,0,0-.68.3,1,1,0,0,0-.23.64.89.89,0,0,0,.91.93"/></g></g></svg>