<svg xmlns="http://www.w3.org/2000/svg" viewBox="0 0 87.47 93.53"><defs><style>.cls-1{fill:none;stroke:#fff;stroke-miterlimit:10;stroke-width:2px;}</style></defs><title>Asset 21</title><g id="Layer_2" data-name="Layer 2"><g id="Layer_2-2" data-name="Layer 2"><path class="cls-1" d="M11.88,75.74H2.13a1.09,1.09,0,0,1-1.13-1V2A1.09,1.09,0,0,1,2.13,1H56.4a1.08,1.08,0,0,1,1.13,1V74.71a1.08,1.08,0,0,1-1.13,1H36.78"/><path class="cls-1" d="M86.47,45.28H57.53V20.09H69.87a4.5,4.5,0,0,1,3.49,1.65l12.22,15a3.94,3.94,0,0,1,.89,2.5Z"/><path class="cls-1" d="M59.59,75.74H57.68a.15.15,0,0,1-.15-.15V45.28H86.47V75.74H83.28"/><ellipse class="cls-1" cx="24.33" cy="77.57" rx="12.45" ry="14.96"/><ellipse class="cls-1" cx="70.83" cy="77.57" rx="12.45" ry="14.96"/></g></g></svg>